<?xml version="1.0" encoding="UTF-8" standalone="no"?>
<!DOCTYPE svg PUBLIC "-//W3C//DTD SVG 1.1//EN"
 "http://www.w3.org/Graphics/SVG/1.1/DTD/svg11.dtd">
<!-- Generated by graphviz version 2.47.3 (20210619.1520)
 -->
<!-- Title: dependencies Pages: 1 -->
<svg width="1746pt" height="326pt"
 viewBox="0.00 0.00 1746.00 325.80" xmlns="http://www.w3.org/2000/svg" xmlns:xlink="http://www.w3.org/1999/xlink">
<g id="graph0" class="graph" transform="scale(1 1) rotate(0) translate(4 321.8)">
<title>dependencies</title>
<polygon fill="white" stroke="transparent" points="-4,4 -4,-321.8 1742,-321.8 1742,4 -4,4"/>
<text text-anchor="middle" x="869" y="-8.2" font-family="sans-serif" font-size="14.00">dependencies</text>
<g id="clust1" class="cluster">
<title>cluster_AppModule</title>
<polygon fill="none" stroke="black" stroke-dasharray="1,5" points="8,-32.8 8,-241.8 298,-241.8 298,-32.8 8,-32.8"/>
</g>
<g id="clust2" class="cluster">
<title>cluster_AppModule_declarations</title>
<polygon fill="none" stroke="black" points="168,-40.8 168,-92.8 290,-92.8 290,-40.8 168,-40.8"/>
</g>
<g id="clust4" class="cluster">
<title>cluster_AppModule_imports</title>
<polygon fill="none" stroke="black" points="16,-40.8 16,-92.8 160,-92.8 160,-40.8 16,-40.8"/>
</g>
<g id="clust6" class="cluster">
<title>cluster_AppModule_bootstrap</title>
<polygon fill="none" stroke="black" points="96,-181.8 96,-233.8 220,-233.8 220,-181.8 96,-181.8"/>
</g>
<g id="clust14" class="cluster">
<title>cluster_AuthModule</title>
<polygon fill="none" stroke="black" stroke-dasharray="1,5" points="829,-108.8 829,-309.8 1505,-309.8 1505,-108.8 829,-108.8"/>
</g>
<g id="clust15" class="cluster">
<title>cluster_AuthModule_declarations</title>
<polygon fill="none" stroke="black" points="1239,-116.8 1239,-168.8 1497,-168.8 1497,-116.8 1239,-116.8"/>
</g>
<g id="clust18" class="cluster">
<title>cluster_AuthModule_imports</title>
<polygon fill="none" stroke="black" points="979,-116.8 979,-168.8 1231,-168.8 1231,-116.8 979,-116.8"/>
</g>
<g id="clust20" class="cluster">
<title>cluster_AuthModule_bootstrap</title>
<polygon fill="none" stroke="black" points="1093,-249.8 1093,-301.8 1221,-301.8 1221,-249.8 1093,-249.8"/>
</g>
<g id="clust21" class="cluster">
<title>cluster_AuthModule_providers</title>
<polygon fill="none" stroke="black" points="837,-116.8 837,-168.8 971,-168.8 971,-116.8 837,-116.8"/>
</g>
<g id="clust28" class="cluster">
<title>cluster_ShipModule</title>
<polygon fill="none" stroke="black" stroke-dasharray="1,5" points="306,-32.8 306,-100.8 1730,-100.8 1730,-32.8 306,-32.8"/>
</g>
<g id="clust29" class="cluster">
<title>cluster_ShipModule_declarations</title>
<polygon fill="none" stroke="black" points="884,-40.8 884,-92.8 1722,-92.8 1722,-40.8 884,-40.8"/>
</g>
<g id="clust36" class="cluster">
<title>cluster_ShipModule_imports</title>
<polygon fill="none" stroke="black" points="730,-40.8 730,-92.8 876,-92.8 876,-40.8 730,-40.8"/>
</g>
<g id="clust37" class="cluster">
<title>cluster_ShipModule_exports</title>
<polygon fill="none" stroke="black" points="588,-40.8 588,-92.8 722,-92.8 722,-40.8 588,-40.8"/>
</g>
<g id="clust38" class="cluster">
<title>cluster_ShipModule_bootstrap</title>
<polygon fill="none" stroke="black" points="454,-40.8 454,-92.8 580,-92.8 580,-40.8 454,-40.8"/>
</g>
<g id="clust39" class="cluster">
<title>cluster_ShipModule_providers</title>
<polygon fill="none" stroke="black" points="314,-40.8 314,-92.8 446,-92.8 446,-40.8 314,-40.8"/>
</g>
<!-- AppComponent -->
<g id="node1" class="node">
<title>AppComponent</title>
<polygon fill="#ffffb3" stroke="black" points="281.94,-84.8 176.06,-84.8 176.06,-48.8 281.94,-48.8 281.94,-84.8"/>
<text text-anchor="middle" x="229" y="-62.6" font-family="Times,serif" font-size="14.00">AppComponent</text>
</g>
<!-- AppModule -->
<g id="node2" class="node">
<title>AppModule</title>
<polygon fill="#8dd3c7" stroke="black" points="199.66,-160.8 196.66,-164.8 175.66,-164.8 172.66,-160.8 116.34,-160.8 116.34,-124.8 199.66,-124.8 199.66,-160.8"/>
<text text-anchor="middle" x="158" y="-138.6" font-family="Times,serif" font-size="14.00">AppModule</text>
</g>
<!-- AppComponent&#45;&gt;AppModule -->
<g id="edge1" class="edge">
<title>AppComponent&#45;&gt;AppModule</title>
<path fill="none" stroke="black" d="M188.05,-84.81C188.05,-84.81 188.05,-114.65 188.05,-114.65"/>
<polygon fill="black" stroke="black" points="184.55,-114.65 188.05,-124.65 191.55,-114.65 184.55,-114.65"/>
</g>
<!-- AppComponent  -->
<g id="node4" class="node">
<title>AppComponent </title>
<polygon fill="#80b1d3" stroke="black" points="212.44,-225.8 103.56,-225.8 103.56,-189.8 212.44,-189.8 212.44,-225.8"/>
<text text-anchor="middle" x="158" y="-203.6" font-family="Times,serif" font-size="14.00">AppComponent </text>
</g>
<!-- AppModule&#45;&gt;AppComponent  -->
<g id="edge3" class="edge">
<title>AppModule&#45;&gt;AppComponent </title>
<path fill="none" stroke="black" stroke-dasharray="1,5" d="M158,-160.91C158,-160.91 158,-179.79 158,-179.79"/>
<polygon fill="black" stroke="black" points="154.5,-179.79 158,-189.79 161.5,-179.79 154.5,-179.79"/>
</g>
<!-- AppRoutingModule -->
<g id="node3" class="node">
<title>AppRoutingModule</title>
<polygon fill="#8dd3c7" stroke="black" points="152.27,-84.8 149.27,-88.8 128.27,-88.8 125.27,-84.8 23.73,-84.8 23.73,-48.8 152.27,-48.8 152.27,-84.8"/>
<text text-anchor="middle" x="88" y="-62.6" font-family="Times,serif" font-size="14.00">AppRoutingModule</text>
</g>
<!-- AppRoutingModule&#45;&gt;AppModule -->
<g id="edge2" class="edge">
<title>AppRoutingModule&#45;&gt;AppModule</title>
<path fill="none" stroke="black" d="M134.28,-84.81C134.28,-84.81 134.28,-114.65 134.28,-114.65"/>
<polygon fill="black" stroke="black" points="130.78,-114.65 134.28,-124.65 137.78,-114.65 130.78,-114.65"/>
</g>
<!-- AuthComponent -->
<g id="node5" class="node">
<title>AuthComponent</title>
<polygon fill="#ffffb3" stroke="black" points="1488.83,-160.8 1379.17,-160.8 1379.17,-124.8 1488.83,-124.8 1488.83,-160.8"/>
<text text-anchor="middle" x="1434" y="-138.6" font-family="Times,serif" font-size="14.00">AuthComponent</text>
</g>
<!-- AuthModule -->
<g id="node7" class="node">
<title>AuthModule</title>
<polygon fill="#8dd3c7" stroke="black" points="1200.55,-225.8 1197.55,-229.8 1176.55,-229.8 1173.55,-225.8 1113.45,-225.8 1113.45,-189.8 1200.55,-189.8 1200.55,-225.8"/>
<text text-anchor="middle" x="1157" y="-203.6" font-family="Times,serif" font-size="14.00">AuthModule</text>
</g>
<!-- AuthComponent&#45;&gt;AuthModule -->
<g id="edge4" class="edge">
<title>AuthComponent&#45;&gt;AuthModule</title>
<path fill="none" stroke="black" d="M1434,-161.08C1434,-182.12 1434,-213.8 1434,-213.8 1434,-213.8 1210.59,-213.8 1210.59,-213.8"/>
<polygon fill="black" stroke="black" points="1210.59,-210.3 1200.59,-213.8 1210.59,-217.3 1210.59,-210.3"/>
</g>
<!-- LoginComponent -->
<g id="node6" class="node">
<title>LoginComponent</title>
<polygon fill="#ffffb3" stroke="black" points="1361.28,-160.8 1246.72,-160.8 1246.72,-124.8 1361.28,-124.8 1361.28,-160.8"/>
<text text-anchor="middle" x="1304" y="-138.6" font-family="Times,serif" font-size="14.00">LoginComponent</text>
</g>
<!-- LoginComponent&#45;&gt;AuthModule -->
<g id="edge5" class="edge">
<title>LoginComponent&#45;&gt;AuthModule</title>
<path fill="none" stroke="black" d="M1304,-160.82C1304,-178.17 1304,-201.8 1304,-201.8 1304,-201.8 1210.71,-201.8 1210.71,-201.8"/>
<polygon fill="black" stroke="black" points="1210.71,-198.3 1200.71,-201.8 1210.71,-205.3 1210.71,-198.3"/>
</g>
<!-- AuthComponent  -->
<g id="node10" class="node">
<title>AuthComponent </title>
<polygon fill="#80b1d3" stroke="black" points="1213.33,-293.8 1100.67,-293.8 1100.67,-257.8 1213.33,-257.8 1213.33,-293.8"/>
<text text-anchor="middle" x="1157" y="-271.6" font-family="Times,serif" font-size="14.00">AuthComponent </text>
</g>
<!-- AuthModule&#45;&gt;AuthComponent  -->
<g id="edge8" class="edge">
<title>AuthModule&#45;&gt;AuthComponent </title>
<path fill="none" stroke="black" stroke-dasharray="1,5" d="M1157,-226.02C1157,-226.02 1157,-247.53 1157,-247.53"/>
<polygon fill="black" stroke="black" points="1153.5,-247.53 1157,-257.53 1160.5,-247.53 1153.5,-247.53"/>
</g>
<!-- AuthRoutingModule -->
<g id="node8" class="node">
<title>AuthRoutingModule</title>
<polygon fill="#8dd3c7" stroke="black" points="1223.17,-160.8 1220.17,-164.8 1199.17,-164.8 1196.17,-160.8 1090.83,-160.8 1090.83,-124.8 1223.17,-124.8 1223.17,-160.8"/>
<text text-anchor="middle" x="1157" y="-138.6" font-family="Times,serif" font-size="14.00">AuthRoutingModule</text>
</g>
<!-- AuthRoutingModule&#45;&gt;AuthModule -->
<g id="edge6" class="edge">
<title>AuthRoutingModule&#45;&gt;AuthModule</title>
<path fill="none" stroke="black" d="M1157,-160.91C1157,-160.91 1157,-179.79 1157,-179.79"/>
<polygon fill="black" stroke="black" points="1153.5,-179.79 1157,-189.79 1160.5,-179.79 1153.5,-179.79"/>
</g>
<!-- ShipModule -->
<g id="node9" class="node">
<title>ShipModule</title>
<polygon fill="#8dd3c7" stroke="black" points="1072.72,-160.8 1069.72,-164.8 1048.72,-164.8 1045.72,-160.8 987.28,-160.8 987.28,-124.8 1072.72,-124.8 1072.72,-160.8"/>
<text text-anchor="middle" x="1030" y="-138.6" font-family="Times,serif" font-size="14.00">ShipModule</text>
</g>
<!-- ShipModule&#45;&gt;AuthModule -->
<g id="edge7" class="edge">
<title>ShipModule&#45;&gt;AuthModule</title>
<path fill="none" stroke="black" d="M1030,-160.82C1030,-178.17 1030,-201.8 1030,-201.8 1030,-201.8 1103.29,-201.8 1103.29,-201.8"/>
<polygon fill="black" stroke="black" points="1103.29,-205.3 1113.29,-201.8 1103.29,-198.3 1103.29,-205.3"/>
</g>
<!-- MenuComponent  -->
<g id="node19" class="node">
<title>MenuComponent </title>
<polygon fill="#fb8072" stroke="black" points="713.99,-84.8 596.01,-84.8 596.01,-48.8 713.99,-48.8 713.99,-84.8"/>
<text text-anchor="middle" x="655" y="-62.6" font-family="Times,serif" font-size="14.00">MenuComponent </text>
</g>
<!-- ShipModule&#45;&gt;MenuComponent  -->
<g id="edge17" class="edge">
<title>ShipModule&#45;&gt;MenuComponent </title>
<path fill="none" stroke="black" stroke-dasharray="5,2" d="M1003.89,-124.55C1003.89,-110.62 1003.89,-93.8 1003.89,-93.8 1003.89,-93.8 655,-93.8 655,-93.8 655,-93.8 655,-92.92 655,-92.92"/>
<polygon fill="black" stroke="black" points="658.5,-94.96 655,-84.96 651.5,-94.96 658.5,-94.96"/>
</g>
<!-- ShipComponent  -->
<g id="node20" class="node">
<title>ShipComponent </title>
<polygon fill="#80b1d3" stroke="black" points="572.01,-84.8 461.99,-84.8 461.99,-48.8 572.01,-48.8 572.01,-84.8"/>
<text text-anchor="middle" x="517" y="-62.6" font-family="Times,serif" font-size="14.00">ShipComponent </text>
</g>
<!-- ShipModule&#45;&gt;ShipComponent  -->
<g id="edge18" class="edge">
<title>ShipModule&#45;&gt;ShipComponent </title>
<path fill="none" stroke="black" stroke-dasharray="1,5" d="M998.39,-124.65C998.39,-112.53 998.39,-98.8 998.39,-98.8 998.39,-98.8 517,-98.8 517,-98.8 517,-98.8 517,-95.04 517,-95.04"/>
<polygon fill="black" stroke="black" points="520.5,-95.04 517,-85.04 513.5,-95.04 520.5,-95.04"/>
</g>
<!-- AuthService -->
<g id="node11" class="node">
<title>AuthService</title>
<ellipse fill="#fdb462" stroke="black" cx="904" cy="-142.8" rx="59.11" ry="18"/>
<text text-anchor="middle" x="904" y="-138.6" font-family="Times,serif" font-size="14.00">AuthService</text>
</g>
<!-- AuthService&#45;&gt;AuthModule -->
<g id="edge9" class="edge">
<title>AuthService&#45;&gt;AuthModule</title>
<path fill="none" stroke="black" d="M904,-161.08C904,-182.12 904,-213.8 904,-213.8 904,-213.8 1103.22,-213.8 1103.22,-213.8"/>
<polygon fill="black" stroke="black" points="1103.22,-217.3 1113.22,-213.8 1103.22,-210.3 1103.22,-217.3"/>
</g>
<!-- ActionComponent -->
<g id="node12" class="node">
<title>ActionComponent</title>
<polygon fill="#ffffb3" stroke="black" points="1713.94,-84.8 1594.06,-84.8 1594.06,-48.8 1713.94,-48.8 1713.94,-84.8"/>
<text text-anchor="middle" x="1654" y="-62.6" font-family="Times,serif" font-size="14.00">ActionComponent</text>
</g>
<!-- ActionComponent&#45;&gt;ShipModule -->
<g id="edge10" class="edge">
<title>ActionComponent&#45;&gt;ShipModule</title>
<path fill="none" stroke="black" d="M1654,-85.08C1654,-100.75 1654,-120.8 1654,-120.8 1654,-120.8 1066.98,-120.8 1066.98,-120.8 1066.98,-120.8 1066.98,-121.18 1066.98,-121.18"/>
<polygon fill="black" stroke="black" points="1063.48,-114.63 1066.98,-124.63 1070.48,-114.63 1063.48,-114.63"/>
</g>
<!-- MenuComponent -->
<g id="node13" class="node">
<title>MenuComponent</title>
<polygon fill="#ffffb3" stroke="black" points="1575.99,-84.8 1462.01,-84.8 1462.01,-48.8 1575.99,-48.8 1575.99,-84.8"/>
<text text-anchor="middle" x="1519" y="-62.6" font-family="Times,serif" font-size="14.00">MenuComponent</text>
</g>
<!-- MenuComponent&#45;&gt;ShipModule -->
<g id="edge11" class="edge">
<title>MenuComponent&#45;&gt;ShipModule</title>
<path fill="none" stroke="black" d="M1475.33,-84.85C1475.33,-99.17 1475.33,-116.8 1475.33,-116.8 1475.33,-116.8 1061.35,-116.8 1061.35,-116.8 1061.35,-116.8 1061.35,-117.59 1061.35,-117.59"/>
<polygon fill="black" stroke="black" points="1057.85,-114.74 1061.35,-124.74 1064.85,-114.74 1057.85,-114.74"/>
</g>
<!-- ShipAddComponent -->
<g id="node14" class="node">
<title>ShipAddComponent</title>
<polygon fill="#ffffb3" stroke="black" points="1443.61,-84.8 1312.39,-84.8 1312.39,-48.8 1443.61,-48.8 1443.61,-84.8"/>
<text text-anchor="middle" x="1378" y="-62.6" font-family="Times,serif" font-size="14.00">ShipAddComponent</text>
</g>
<!-- ShipAddComponent&#45;&gt;ShipModule -->
<g id="edge12" class="edge">
<title>ShipAddComponent&#45;&gt;ShipModule</title>
<path fill="none" stroke="black" d="M1336.92,-84.84C1336.92,-97.36 1336.92,-111.8 1336.92,-111.8 1336.92,-111.8 1055.72,-111.8 1055.72,-111.8 1055.72,-111.8 1055.72,-114.77 1055.72,-114.77"/>
<polygon fill="black" stroke="black" points="1052.22,-114.77 1055.72,-124.77 1059.22,-114.77 1052.22,-114.77"/>
</g>
<!-- ShipComponent -->
<g id="node15" class="node">
<title>ShipComponent</title>
<polygon fill="#ffffb3" stroke="black" points="1294.51,-84.8 1187.49,-84.8 1187.49,-48.8 1294.51,-48.8 1294.51,-84.8"/>
<text text-anchor="middle" x="1241" y="-62.6" font-family="Times,serif" font-size="14.00">ShipComponent</text>
</g>
<!-- ShipComponent&#45;&gt;ShipModule -->
<g id="edge13" class="edge">
<title>ShipComponent&#45;&gt;ShipModule</title>
<path fill="none" stroke="black" d="M1205.41,-84.9C1205.41,-95.89 1205.41,-107.8 1205.41,-107.8 1205.41,-107.8 1050.09,-107.8 1050.09,-107.8 1050.09,-107.8 1050.09,-114.48 1050.09,-114.48"/>
<polygon fill="black" stroke="black" points="1046.59,-114.48 1050.09,-124.48 1053.59,-114.48 1046.59,-114.48"/>
</g>
<!-- ShipEditComponent -->
<g id="node16" class="node">
<title>ShipEditComponent</title>
<polygon fill="#ffffb3" stroke="black" points="1169.34,-84.8 1038.66,-84.8 1038.66,-48.8 1169.34,-48.8 1169.34,-84.8"/>
<text text-anchor="middle" x="1104" y="-62.6" font-family="Times,serif" font-size="14.00">ShipEditComponent</text>
</g>
<!-- ShipEditComponent&#45;&gt;ShipModule -->
<g id="edge14" class="edge">
<title>ShipEditComponent&#45;&gt;ShipModule</title>
<path fill="none" stroke="black" d="M1044.46,-84.81C1044.46,-84.81 1044.46,-114.65 1044.46,-114.65"/>
<polygon fill="black" stroke="black" points="1040.96,-114.65 1044.46,-124.65 1047.96,-114.65 1040.96,-114.65"/>
</g>
<!-- ShipListComponent -->
<g id="node17" class="node">
<title>ShipListComponent</title>
<polygon fill="#ffffb3" stroke="black" points="1020.28,-84.8 891.72,-84.8 891.72,-48.8 1020.28,-48.8 1020.28,-84.8"/>
<text text-anchor="middle" x="956" y="-62.6" font-family="Times,serif" font-size="14.00">ShipListComponent</text>
</g>
<!-- ShipListComponent&#45;&gt;ShipModule -->
<g id="edge15" class="edge">
<title>ShipListComponent&#45;&gt;ShipModule</title>
<path fill="none" stroke="black" d="M1014.89,-84.81C1014.89,-84.81 1014.89,-114.65 1014.89,-114.65"/>
<polygon fill="black" stroke="black" points="1011.39,-114.65 1014.89,-124.65 1018.39,-114.65 1011.39,-114.65"/>
</g>
<!-- ShipRoutingModule -->
<g id="node18" class="node">
<title>ShipRoutingModule</title>
<polygon fill="#8dd3c7" stroke="black" points="868.34,-84.8 865.34,-88.8 844.34,-88.8 841.34,-84.8 737.66,-84.8 737.66,-48.8 868.34,-48.8 868.34,-84.8"/>
<text text-anchor="middle" x="803" y="-62.6" font-family="Times,serif" font-size="14.00">ShipRoutingModule</text>
</g>
<!-- ShipRoutingModule&#45;&gt;ShipModule -->
<g id="edge16" class="edge">
<title>ShipRoutingModule&#45;&gt;ShipModule</title>
<path fill="none" stroke="black" d="M856.43,-84.92C856.43,-87.77 856.43,-89.8 856.43,-89.8 856.43,-89.8 1009.39,-89.8 1009.39,-89.8 1009.39,-89.8 1009.39,-114.56 1009.39,-114.56"/>
<polygon fill="black" stroke="black" points="1005.89,-114.56 1009.39,-124.56 1012.89,-114.56 1005.89,-114.56"/>
</g>
<!-- ShipService -->
<g id="node21" class="node">
<title>ShipService</title>
<ellipse fill="#fdb462" stroke="black" cx="380" cy="-66.8" rx="57.9" ry="18"/>
<text text-anchor="middle" x="380" y="-62.6" font-family="Times,serif" font-size="14.00">ShipService</text>
</g>
<!-- ShipService&#45;&gt;ShipModule -->
<g id="edge19" class="edge">
<title>ShipService&#45;&gt;ShipModule</title>
<path fill="none" stroke="black" d="M380,-84.8C380,-93.8 380,-102.8 380,-102.8 380,-102.8 992.89,-102.8 992.89,-102.8 992.89,-102.8 992.89,-114.67 992.89,-114.67"/>
<polygon fill="black" stroke="black" points="989.39,-114.67 992.89,-124.67 996.39,-114.67 989.39,-114.67"/>
</g>
</g>
</svg>
