<?xml version="1.0" encoding="UTF-8" standalone="no"?>
<!DOCTYPE svg PUBLIC "-//W3C//DTD SVG 1.1//EN"
 "http://www.w3.org/Graphics/SVG/1.1/DTD/svg11.dtd">
<!-- Generated by graphviz version 2.47.3 (20210619.1520)
 -->
<!-- Title: dependencies Pages: 1 -->
<svg width="1172pt" height="247pt"
 viewBox="0.00 0.00 1172.00 246.80" xmlns="http://www.w3.org/2000/svg" xmlns:xlink="http://www.w3.org/1999/xlink">
<g id="graph0" class="graph" transform="scale(1 1) rotate(0) translate(4 242.8)">
<title>dependencies</title>
<polygon fill="white" stroke="transparent" points="-4,4 -4,-242.8 1168,-242.8 1168,4 -4,4"/>
<text text-anchor="middle" x="582" y="-8.2" font-family="sans-serif" font-size="14.00">dependencies</text>
<g id="clust1" class="cluster">
<title>cluster_ShipModule</title>
<polygon fill="none" stroke="black" stroke-dasharray="1,5" points="8,-32.8 8,-230.8 1156,-230.8 1156,-32.8 8,-32.8"/>
</g>
<g id="clust9" class="cluster">
<title>cluster_ShipModule_imports</title>
<polygon fill="none" stroke="black" points="1002,-40.8 1002,-92.8 1148,-92.8 1148,-40.8 1002,-40.8"/>
</g>
<g id="clust10" class="cluster">
<title>cluster_ShipModule_exports</title>
<polygon fill="none" stroke="black" points="444,-170.8 444,-222.8 578,-222.8 578,-170.8 444,-170.8"/>
</g>
<g id="clust11" class="cluster">
<title>cluster_ShipModule_bootstrap</title>
<polygon fill="none" stroke="black" points="586,-170.8 586,-222.8 712,-222.8 712,-170.8 586,-170.8"/>
</g>
<g id="clust12" class="cluster">
<title>cluster_ShipModule_providers</title>
<polygon fill="none" stroke="black" points="862,-40.8 862,-92.8 994,-92.8 994,-40.8 862,-40.8"/>
</g>
<g id="clust2" class="cluster">
<title>cluster_ShipModule_declarations</title>
<polygon fill="none" stroke="black" points="16,-40.8 16,-92.8 854,-92.8 854,-40.8 16,-40.8"/>
</g>
<!-- ActionComponent -->
<g id="node1" class="node">
<title>ActionComponent</title>
<polygon fill="#ffffb3" stroke="black" points="845.94,-84.8 726.06,-84.8 726.06,-48.8 845.94,-48.8 845.94,-84.8"/>
<text text-anchor="middle" x="786" y="-62.6" font-family="Times,serif" font-size="14.00">ActionComponent</text>
</g>
<!-- ShipModule -->
<g id="node7" class="node">
<title>ShipModule</title>
<polygon fill="#8dd3c7" stroke="black" points="622.72,-149.8 619.72,-153.8 598.72,-153.8 595.72,-149.8 537.28,-149.8 537.28,-113.8 622.72,-113.8 622.72,-149.8"/>
<text text-anchor="middle" x="580" y="-127.6" font-family="Times,serif" font-size="14.00">ShipModule</text>
</g>
<!-- ActionComponent&#45;&gt;ShipModule -->
<g id="edge1" class="edge">
<title>ActionComponent&#45;&gt;ShipModule</title>
<path fill="none" stroke="black" d="M786,-84.83C786,-101.2 786,-122.8 786,-122.8 786,-122.8 632.68,-122.8 632.68,-122.8"/>
<polygon fill="black" stroke="black" points="632.68,-119.3 622.68,-122.8 632.68,-126.3 632.68,-119.3"/>
</g>
<!-- MenuComponent -->
<g id="node2" class="node">
<title>MenuComponent</title>
<polygon fill="#ffffb3" stroke="black" points="707.99,-84.8 594.01,-84.8 594.01,-48.8 707.99,-48.8 707.99,-84.8"/>
<text text-anchor="middle" x="651" y="-62.6" font-family="Times,serif" font-size="14.00">MenuComponent</text>
</g>
<!-- MenuComponent&#45;&gt;ShipModule -->
<g id="edge2" class="edge">
<title>MenuComponent&#45;&gt;ShipModule</title>
<path fill="none" stroke="black" d="M608.31,-84.91C608.31,-84.91 608.31,-103.79 608.31,-103.79"/>
<polygon fill="black" stroke="black" points="604.81,-103.79 608.31,-113.79 611.81,-103.79 604.81,-103.79"/>
</g>
<!-- ShipAddComponent -->
<g id="node3" class="node">
<title>ShipAddComponent</title>
<polygon fill="#ffffb3" stroke="black" points="575.61,-84.8 444.39,-84.8 444.39,-48.8 575.61,-48.8 575.61,-84.8"/>
<text text-anchor="middle" x="510" y="-62.6" font-family="Times,serif" font-size="14.00">ShipAddComponent</text>
</g>
<!-- ShipAddComponent&#45;&gt;ShipModule -->
<g id="edge3" class="edge">
<title>ShipAddComponent&#45;&gt;ShipModule</title>
<path fill="none" stroke="black" d="M556.47,-84.91C556.47,-84.91 556.47,-103.79 556.47,-103.79"/>
<polygon fill="black" stroke="black" points="552.97,-103.79 556.47,-113.79 559.97,-103.79 552.97,-103.79"/>
</g>
<!-- ShipComponent -->
<g id="node4" class="node">
<title>ShipComponent</title>
<polygon fill="#ffffb3" stroke="black" points="426.51,-84.8 319.49,-84.8 319.49,-48.8 426.51,-48.8 426.51,-84.8"/>
<text text-anchor="middle" x="373" y="-62.6" font-family="Times,serif" font-size="14.00">ShipComponent</text>
</g>
<!-- ShipComponent&#45;&gt;ShipModule -->
<g id="edge4" class="edge">
<title>ShipComponent&#45;&gt;ShipModule</title>
<path fill="none" stroke="black" d="M373,-84.83C373,-101.2 373,-122.8 373,-122.8 373,-122.8 527.36,-122.8 527.36,-122.8"/>
<polygon fill="black" stroke="black" points="527.36,-126.3 537.36,-122.8 527.36,-119.3 527.36,-126.3"/>
</g>
<!-- ShipEditComponent -->
<g id="node5" class="node">
<title>ShipEditComponent</title>
<polygon fill="#ffffb3" stroke="black" points="301.34,-84.8 170.66,-84.8 170.66,-48.8 301.34,-48.8 301.34,-84.8"/>
<text text-anchor="middle" x="236" y="-62.6" font-family="Times,serif" font-size="14.00">ShipEditComponent</text>
</g>
<!-- ShipEditComponent&#45;&gt;ShipModule -->
<g id="edge5" class="edge">
<title>ShipEditComponent&#45;&gt;ShipModule</title>
<path fill="none" stroke="black" d="M236,-84.91C236,-104.14 236,-131.8 236,-131.8 236,-131.8 527.13,-131.8 527.13,-131.8"/>
<polygon fill="black" stroke="black" points="527.13,-135.3 537.13,-131.8 527.13,-128.3 527.13,-135.3"/>
</g>
<!-- ShipListComponent -->
<g id="node6" class="node">
<title>ShipListComponent</title>
<polygon fill="#ffffb3" stroke="black" points="152.28,-84.8 23.72,-84.8 23.72,-48.8 152.28,-48.8 152.28,-84.8"/>
<text text-anchor="middle" x="88" y="-62.6" font-family="Times,serif" font-size="14.00">ShipListComponent</text>
</g>
<!-- ShipListComponent&#45;&gt;ShipModule -->
<g id="edge6" class="edge">
<title>ShipListComponent&#45;&gt;ShipModule</title>
<path fill="none" stroke="black" d="M88,-85.09C88,-107.01 88,-140.8 88,-140.8 88,-140.8 527.2,-140.8 527.2,-140.8"/>
<polygon fill="black" stroke="black" points="527.2,-144.3 537.2,-140.8 527.2,-137.3 527.2,-144.3"/>
</g>
<!-- MenuComponent  -->
<g id="node9" class="node">
<title>MenuComponent </title>
<polygon fill="#fb8072" stroke="black" points="569.99,-214.8 452.01,-214.8 452.01,-178.8 569.99,-178.8 569.99,-214.8"/>
<text text-anchor="middle" x="511" y="-192.6" font-family="Times,serif" font-size="14.00">MenuComponent </text>
</g>
<!-- ShipModule&#45;&gt;MenuComponent  -->
<g id="edge8" class="edge">
<title>ShipModule&#45;&gt;MenuComponent </title>
<path fill="none" stroke="black" stroke-dasharray="5,2" d="M553.57,-149.91C553.57,-149.91 553.57,-168.79 553.57,-168.79"/>
<polygon fill="black" stroke="black" points="550.07,-168.79 553.57,-178.79 557.07,-168.79 550.07,-168.79"/>
</g>
<!-- ShipComponent  -->
<g id="node10" class="node">
<title>ShipComponent </title>
<polygon fill="#80b1d3" stroke="black" points="704.01,-214.8 593.99,-214.8 593.99,-178.8 704.01,-178.8 704.01,-214.8"/>
<text text-anchor="middle" x="649" y="-192.6" font-family="Times,serif" font-size="14.00">ShipComponent </text>
</g>
<!-- ShipModule&#45;&gt;ShipComponent  -->
<g id="edge9" class="edge">
<title>ShipModule&#45;&gt;ShipComponent </title>
<path fill="none" stroke="black" stroke-dasharray="1,5" d="M608.18,-149.91C608.18,-149.91 608.18,-168.79 608.18,-168.79"/>
<polygon fill="black" stroke="black" points="604.68,-168.79 608.18,-178.79 611.68,-168.79 604.68,-168.79"/>
</g>
<!-- ShipRoutingModule -->
<g id="node8" class="node">
<title>ShipRoutingModule</title>
<polygon fill="#8dd3c7" stroke="black" points="1140.34,-84.8 1137.34,-88.8 1116.34,-88.8 1113.34,-84.8 1009.66,-84.8 1009.66,-48.8 1140.34,-48.8 1140.34,-84.8"/>
<text text-anchor="middle" x="1075" y="-62.6" font-family="Times,serif" font-size="14.00">ShipRoutingModule</text>
</g>
<!-- ShipRoutingModule&#45;&gt;ShipModule -->
<g id="edge7" class="edge">
<title>ShipRoutingModule&#45;&gt;ShipModule</title>
<path fill="none" stroke="black" d="M1075,-85.09C1075,-107.01 1075,-140.8 1075,-140.8 1075,-140.8 632.63,-140.8 632.63,-140.8"/>
<polygon fill="black" stroke="black" points="632.63,-137.3 622.63,-140.8 632.63,-144.3 632.63,-137.3"/>
</g>
<!-- ShipService -->
<g id="node11" class="node">
<title>ShipService</title>
<ellipse fill="#fdb462" stroke="black" cx="928" cy="-66.8" rx="57.9" ry="18"/>
<text text-anchor="middle" x="928" y="-62.6" font-family="Times,serif" font-size="14.00">ShipService</text>
</g>
<!-- ShipService&#45;&gt;ShipModule -->
<g id="edge10" class="edge">
<title>ShipService&#45;&gt;ShipModule</title>
<path fill="none" stroke="black" d="M928,-84.91C928,-104.14 928,-131.8 928,-131.8 928,-131.8 632.67,-131.8 632.67,-131.8"/>
<polygon fill="black" stroke="black" points="632.67,-128.3 622.67,-131.8 632.67,-135.3 632.67,-128.3"/>
</g>
</g>
</svg>
