<?xml version="1.0" encoding="UTF-8" standalone="no"?>
<!DOCTYPE svg PUBLIC "-//W3C//DTD SVG 1.1//EN"
 "http://www.w3.org/Graphics/SVG/1.1/DTD/svg11.dtd">
<!-- Generated by graphviz version 2.47.3 (20210619.1520)
 -->
<!-- Title: dependencies Pages: 1 -->
<svg width="700pt" height="247pt"
 viewBox="0.00 0.00 700.00 246.80" xmlns="http://www.w3.org/2000/svg" xmlns:xlink="http://www.w3.org/1999/xlink">
<g id="graph0" class="graph" transform="scale(1 1) rotate(0) translate(4 242.8)">
<title>dependencies</title>
<polygon fill="white" stroke="transparent" points="-4,4 -4,-242.8 696,-242.8 696,4 -4,4"/>
<text text-anchor="middle" x="346" y="-8.2" font-family="sans-serif" font-size="14.00">dependencies</text>
<g id="clust1" class="cluster">
<title>cluster_AuthModule</title>
<polygon fill="none" stroke="black" stroke-dasharray="1,5" points="8,-32.8 8,-230.8 684,-230.8 684,-32.8 8,-32.8"/>
</g>
<g id="clust2" class="cluster">
<title>cluster_AuthModule_declarations</title>
<polygon fill="none" stroke="black" points="418,-40.8 418,-92.8 676,-92.8 676,-40.8 418,-40.8"/>
</g>
<g id="clust5" class="cluster">
<title>cluster_AuthModule_imports</title>
<polygon fill="none" stroke="black" points="158,-40.8 158,-92.8 410,-92.8 410,-40.8 158,-40.8"/>
</g>
<g id="clust7" class="cluster">
<title>cluster_AuthModule_bootstrap</title>
<polygon fill="none" stroke="black" points="272,-170.8 272,-222.8 400,-222.8 400,-170.8 272,-170.8"/>
</g>
<g id="clust8" class="cluster">
<title>cluster_AuthModule_providers</title>
<polygon fill="none" stroke="black" points="16,-40.8 16,-92.8 150,-92.8 150,-40.8 16,-40.8"/>
</g>
<!-- AuthComponent -->
<g id="node1" class="node">
<title>AuthComponent</title>
<polygon fill="#ffffb3" stroke="black" points="667.83,-84.8 558.17,-84.8 558.17,-48.8 667.83,-48.8 667.83,-84.8"/>
<text text-anchor="middle" x="613" y="-62.6" font-family="Times,serif" font-size="14.00">AuthComponent</text>
</g>
<!-- AuthModule -->
<g id="node3" class="node">
<title>AuthModule</title>
<polygon fill="#8dd3c7" stroke="black" points="379.55,-149.8 376.55,-153.8 355.55,-153.8 352.55,-149.8 292.45,-149.8 292.45,-113.8 379.55,-113.8 379.55,-149.8"/>
<text text-anchor="middle" x="336" y="-127.6" font-family="Times,serif" font-size="14.00">AuthModule</text>
</g>
<!-- AuthComponent&#45;&gt;AuthModule -->
<g id="edge1" class="edge">
<title>AuthComponent&#45;&gt;AuthModule</title>
<path fill="none" stroke="black" d="M613,-85.08C613,-106.12 613,-137.8 613,-137.8 613,-137.8 389.59,-137.8 389.59,-137.8"/>
<polygon fill="black" stroke="black" points="389.59,-134.3 379.59,-137.8 389.59,-141.3 389.59,-134.3"/>
</g>
<!-- LoginComponent -->
<g id="node2" class="node">
<title>LoginComponent</title>
<polygon fill="#ffffb3" stroke="black" points="540.28,-84.8 425.72,-84.8 425.72,-48.8 540.28,-48.8 540.28,-84.8"/>
<text text-anchor="middle" x="483" y="-62.6" font-family="Times,serif" font-size="14.00">LoginComponent</text>
</g>
<!-- LoginComponent&#45;&gt;AuthModule -->
<g id="edge2" class="edge">
<title>LoginComponent&#45;&gt;AuthModule</title>
<path fill="none" stroke="black" d="M483,-84.82C483,-102.17 483,-125.8 483,-125.8 483,-125.8 389.71,-125.8 389.71,-125.8"/>
<polygon fill="black" stroke="black" points="389.71,-122.3 379.71,-125.8 389.71,-129.3 389.71,-122.3"/>
</g>
<!-- AuthComponent  -->
<g id="node6" class="node">
<title>AuthComponent </title>
<polygon fill="#80b1d3" stroke="black" points="392.33,-214.8 279.67,-214.8 279.67,-178.8 392.33,-178.8 392.33,-214.8"/>
<text text-anchor="middle" x="336" y="-192.6" font-family="Times,serif" font-size="14.00">AuthComponent </text>
</g>
<!-- AuthModule&#45;&gt;AuthComponent  -->
<g id="edge5" class="edge">
<title>AuthModule&#45;&gt;AuthComponent </title>
<path fill="none" stroke="black" stroke-dasharray="1,5" d="M336,-149.91C336,-149.91 336,-168.79 336,-168.79"/>
<polygon fill="black" stroke="black" points="332.5,-168.79 336,-178.79 339.5,-168.79 332.5,-168.79"/>
</g>
<!-- AuthRoutingModule -->
<g id="node4" class="node">
<title>AuthRoutingModule</title>
<polygon fill="#8dd3c7" stroke="black" points="402.17,-84.8 399.17,-88.8 378.17,-88.8 375.17,-84.8 269.83,-84.8 269.83,-48.8 402.17,-48.8 402.17,-84.8"/>
<text text-anchor="middle" x="336" y="-62.6" font-family="Times,serif" font-size="14.00">AuthRoutingModule</text>
</g>
<!-- AuthRoutingModule&#45;&gt;AuthModule -->
<g id="edge3" class="edge">
<title>AuthRoutingModule&#45;&gt;AuthModule</title>
<path fill="none" stroke="black" d="M336,-84.91C336,-84.91 336,-103.79 336,-103.79"/>
<polygon fill="black" stroke="black" points="332.5,-103.79 336,-113.79 339.5,-103.79 332.5,-103.79"/>
</g>
<!-- ShipModule -->
<g id="node5" class="node">
<title>ShipModule</title>
<polygon fill="#8dd3c7" stroke="black" points="251.72,-84.8 248.72,-88.8 227.72,-88.8 224.72,-84.8 166.28,-84.8 166.28,-48.8 251.72,-48.8 251.72,-84.8"/>
<text text-anchor="middle" x="209" y="-62.6" font-family="Times,serif" font-size="14.00">ShipModule</text>
</g>
<!-- ShipModule&#45;&gt;AuthModule -->
<g id="edge4" class="edge">
<title>ShipModule&#45;&gt;AuthModule</title>
<path fill="none" stroke="black" d="M209,-84.82C209,-102.17 209,-125.8 209,-125.8 209,-125.8 282.29,-125.8 282.29,-125.8"/>
<polygon fill="black" stroke="black" points="282.29,-129.3 292.29,-125.8 282.29,-122.3 282.29,-129.3"/>
</g>
<!-- AuthService -->
<g id="node7" class="node">
<title>AuthService</title>
<ellipse fill="#fdb462" stroke="black" cx="83" cy="-66.8" rx="59.11" ry="18"/>
<text text-anchor="middle" x="83" y="-62.6" font-family="Times,serif" font-size="14.00">AuthService</text>
</g>
<!-- AuthService&#45;&gt;AuthModule -->
<g id="edge6" class="edge">
<title>AuthService&#45;&gt;AuthModule</title>
<path fill="none" stroke="black" d="M83,-85.08C83,-106.12 83,-137.8 83,-137.8 83,-137.8 282.22,-137.8 282.22,-137.8"/>
<polygon fill="black" stroke="black" points="282.22,-141.3 292.22,-137.8 282.22,-134.3 282.22,-141.3"/>
</g>
</g>
</svg>
